<svg xmlns="http://www.w3.org/2000/svg" viewBox="0 0 96 96" role="img" aria-label="AfterTax US">
  <rect width="96" height="96" rx="22" fill="#f8fbfb" />
  <defs>
    <linearGradient id="aftertaxus-favicon-ring" x1="12" y1="20" x2="78" y2="82" gradientUnits="userSpaceOnUse">
      <stop offset="0" stop-color="#061B38" />
      <stop offset="0.48" stop-color="#1F5FA8" />
      <stop offset="1" stop-color="#29C7A3" />
    </linearGradient>
    <linearGradient id="aftertaxus-favicon-inner" x1="22" y1="28" x2="76" y2="72" gradientUnits="userSpaceOnUse">
      <stop offset="0" stop-color="#2A64B8" stop-opacity="0.88" />
      <stop offset="1" stop-color="#2DD4A2" stop-opacity="0.88" />
    </linearGradient>
  </defs>
  <path d="M48 10a38 38 0 1 0 27.7 64.1l-12-10.4A22.1 22.1 0 1 1 63.4 32l12.4-10A37.8 37.8 0 0 0 48 10Z" fill="url(#aftertaxus-favicon-ring)" />
  <path d="M48 22a26 26 0 1 0 18.7 44.1l-9.1-7.9A14 14 0 1 1 57.7 38l9.4-7.5A25.8 25.8 0 0 0 48 22Z" fill="url(#aftertaxus-favicon-inner)" />
  <g fill="#32C8A6">
    <circle cx="72" cy="25" r="3.8" />
    <circle cx="83" cy="30" r="2.4" />
    <circle cx="70" cy="38" r="2.6" />
    <circle cx="81" cy="45" r="3" />
    <circle cx="69" cy="56" r="3.3" />
    <circle cx="84" cy="64" r="2.2" />
    <circle cx="75" cy="73" r="2.8" />
  </g>
  <g fill="#2361C9">
    <circle cx="70" cy="15" r="2.2" />
    <circle cx="80" cy="19" r="3" />
    <circle cx="88" cy="36" r="2.6" />
    <circle cx="74" cy="46" r="1.8" />
  </g>
</svg>
